<?xml version="1.0" standalone="no"?>
<!DOCTYPE svg PUBLIC "-//W3C//DTD SVG 20010904//EN"
 "http://www.w3.org/TR/2001/REC-SVG-20010904/DTD/svg10.dtd">
<svg version="1.0" xmlns="http://www.w3.org/2000/svg"
 width="401.000000pt" height="401.000000pt" viewBox="0 0 401.000000 401.000000"
 preserveAspectRatio="xMidYMid meet">
<metadata>
Created by potrace 1.11, written by Peter Selinger 2001-2013
</metadata>
<g transform="translate(0.000000,401.000000) scale(0.100000,-0.100000)"
fill="#000000" stroke="none">
<path d="M1798 4005 c-2 -1 -30 -6 -63 -9 -72 -8 -288 -55 -295 -65 -3 -3 -18
-7 -35 -9 -16 -2 -35 -8 -42 -14 -7 -6 -13 -8 -13 -5 0 3 -12 0 -27 -8 -15 -8
-30 -12 -35 -9 -4 3 -8 0 -8 -7 0 -7 -3 -9 -7 -6 -3 4 -11 3 -17 -2 -6 -5 -28
-14 -48 -20 -21 -7 -38 -16 -38 -20 0 -4 -10 -7 -21 -8 -12 -1 -29 -8 -38 -16
-9 -7 -42 -27 -74 -43 -32 -16 -66 -37 -76 -46 -11 -9 -22 -14 -25 -11 -3 4
-6 0 -6 -7 0 -7 -3 -10 -7 -7 -3 4 -25 -9 -49 -28 -23 -19 -47 -35 -53 -35 -6
0 -11 -5 -11 -10 0 -6 -8 -14 -17 -17 -18 -7 -51 -33 -91 -73 -14 -14 -39 -35
-56 -47 -16 -13 -26 -23 -20 -23 5 0 -3 -8 -17 -18 -14 -9 -48 -42 -74 -72
-27 -30 -55 -61 -62 -68 -7 -7 -13 -18 -13 -23 0 -6 -4 -8 -8 -5 -4 2 -13 -7
-20 -22 -6 -15 -22 -38 -34 -52 -23 -25 -73 -97 -94 -135 -25 -47 -39 -70 -45
-75 -26 -21 -158 -337 -161 -387 -1 -7 -5 -13 -10 -13 -4 0 -7 -3 -6 -7 1 -5
-8 -48 -20 -98 -11 -49 -24 -110 -27 -135 -7 -50 -13 -85 -15 -85 -3 0 -11
-150 -12 -230 -1 -168 14 -303 52 -465 11 -47 22 -95 25 -107 3 -12 10 -35 17
-50 6 -16 12 -31 13 -35 2 -5 3 -9 5 -10 2 -4 11 -41 12 -55 1 -7 4 -13 8 -13
3 0 12 -17 19 -37 59 -166 236 -441 378 -590 33 -35 58 -63 55 -63 -3 0 12
-13 33 -30 21 -16 47 -40 59 -52 51 -55 348 -259 384 -265 8 -1 22 -9 31 -17
10 -9 20 -16 24 -16 4 0 32 -12 64 -26 79 -35 115 -49 133 -52 3 -1 21 -8 41
-16 20 -8 39 -12 43 -9 3 4 6 2 6 -4 0 -5 6 -10 13 -11 6 0 59 -12 117 -26 58
-13 121 -27 140 -29 19 -3 35 -6 35 -7 0 -3 104 -11 163 -13 28 -1 52 -5 52
-10 0 -5 6 -4 13 2 9 7 24 8 45 1 18 -5 30 -5 28 -2 -2 4 31 7 75 7 43 -1 79
1 79 4 0 3 25 6 55 6 30 0 55 3 55 6 0 4 8 6 18 6 34 -1 267 53 319 75 15 6
30 12 33 13 38 10 76 25 185 75 39 17 72 31 74 30 2 -1 7 2 10 7 3 4 16 14 29
21 48 27 66 37 76 45 22 16 81 51 89 52 4 0 11 5 15 11 4 6 34 30 67 55 33 24
67 52 76 61 9 10 19 18 23 18 16 0 286 289 286 306 0 3 15 24 33 47 34 45 39
53 88 137 18 30 39 63 48 74 9 10 15 19 13 20 -2 0 12 35 31 76 30 67 48 111
73 175 4 11 9 27 10 35 2 8 12 40 22 70 10 30 25 87 33 125 7 39 16 72 19 75
3 3 6 19 7 35 0 17 4 55 8 85 4 30 8 76 9 102 1 26 5 51 9 54 4 4 2 13 -4 20
-7 8 -7 14 1 19 8 5 8 11 -1 21 -6 8 -8 14 -3 14 5 0 9 25 9 55 0 30 -3 55 -6
55 -3 0 -6 19 -6 43 -2 68 -11 147 -27 227 -14 71 -18 89 -32 143 -3 12 -7 29
-9 37 -2 8 -4 17 -6 20 -1 3 -3 10 -3 15 -1 6 -7 20 -14 33 -7 12 -10 22 -6
22 3 0 1 7 -6 15 -7 9 -10 18 -7 21 3 3 -3 21 -14 40 -10 19 -19 39 -19 44 0
33 -193 378 -229 410 -4 3 -25 31 -49 62 -54 73 -242 268 -258 268 -7 0 -16 9
-19 20 -3 11 -12 20 -20 20 -7 0 -15 3 -17 8 -5 12 -151 118 -188 137 -19 10
-37 21 -40 25 -3 4 -34 22 -70 41 -36 19 -66 37 -68 42 -2 4 -11 7 -21 7 -9 0
-21 4 -26 8 -9 8 -52 25 -210 85 -16 7 -32 12 -35 13 -16 3 -67 17 -80 21 -19
8 -28 10 -65 17 -16 3 -55 10 -85 16 -30 6 -68 13 -85 16 -35 5 -462 14 -467
9z m372 -209 c30 -3 69 -8 85 -11 17 -3 44 -7 60 -9 25 -4 198 -48 230 -59 11
-4 36 -14 63 -24 9 -3 20 -7 25 -8 4 -2 9 -4 12 -5 3 -1 8 -3 13 -4 4 -1 46
-20 93 -42 165 -79 345 -204 469 -326 69 -68 150 -158 170 -188 8 -12 20 -28
25 -34 17 -19 81 -110 88 -126 4 -8 18 -33 31 -55 29 -47 76 -144 76 -156 0
-5 4 -9 9 -9 5 0 11 -10 14 -22 3 -13 21 -69 41 -125 19 -56 37 -112 38 -125
2 -13 7 -29 11 -36 5 -7 9 -26 9 -42 1 -17 4 -30 7 -30 3 0 7 -12 8 -27 4 -65
9 -99 16 -110 5 -8 3 -13 -4 -13 -7 0 -8 -4 -2 -12 5 -7 9 -40 8 -73 0 -54 -2
-60 -22 -63 -13 -2 -23 -7 -23 -11 0 -4 -10 -7 -22 -8 -11 -1 -24 -7 -28 -12
-3 -6 -15 -12 -25 -14 -11 -2 -39 -13 -62 -25 -39 -20 -165 -70 -181 -72 -4 0
-23 -5 -42 -10 -19 -5 -48 -12 -65 -14 -16 -3 -41 -8 -55 -11 -44 -9 -163 -18
-231 -18 -196 0 -345 47 -430 136 -34 35 -73 111 -71 140 0 10 -4 15 -10 11
-7 -4 -8 -2 -4 4 4 6 9 37 11 69 2 32 6 65 8 73 14 54 20 70 30 70 6 0 8 3 4
6 -12 13 47 76 93 99 39 20 59 23 121 20 41 -1 74 -4 74 -5 0 -1 18 -3 40 -4
23 -1 46 -5 52 -9 6 -4 13 0 16 7 3 8 1 16 -4 18 -5 2 -11 13 -12 26 0 12 -4
22 -8 22 -4 0 -9 12 -12 28 -6 30 -47 122 -74 166 -49 81 -133 160 -210 200
-18 9 -34 16 -35 15 -2 0 -16 6 -32 15 -16 8 -33 13 -38 10 -4 -3 -8 -1 -8 4
0 5 -6 9 -12 9 -7 0 -26 4 -43 8 -39 10 -255 15 -255 7 0 -4 -21 -8 -46 -9
-25 -1 -52 -7 -60 -14 -8 -6 -14 -9 -14 -6 0 3 -15 1 -32 -4 -18 -6 -40 -12
-48 -14 -8 -2 -17 -4 -20 -5 -3 -1 -8 -2 -12 -1 -5 0 -8 -4 -8 -11 0 -6 -3 -9
-6 -5 -7 6 -204 -93 -224 -113 -3 -3 -21 -16 -40 -30 -55 -38 -58 -41 -144
-125 -87 -87 -136 -142 -136 -155 0 -4 -6 -13 -14 -19 -8 -7 -26 -33 -39 -59
-51 -96 -62 -117 -67 -122 -3 -3 -21 -36 -40 -75 -18 -38 -41 -81 -50 -95
-103 -156 -131 -198 -147 -215 -10 -11 -31 -35 -46 -54 -44 -53 -114 -104
-207 -152 -47 -24 -86 -47 -88 -51 -2 -5 -8 -8 -13 -8 -5 0 -42 -16 -83 -35
-41 -19 -81 -35 -89 -35 -7 0 -17 -3 -21 -7 -7 -7 -20 -10 -66 -16 -14 -2 -31
-7 -38 -11 -7 -4 -12 -2 -12 4 0 6 -5 8 -12 4 -19 -12 -48 -12 -48 0 0 6 -5 4
-10 -4 -6 -10 -10 -11 -10 -2 0 6 -3 11 -7 11 -29 -5 -37 10 -50 91 -2 14 -6
32 -10 40 -7 19 -15 107 -17 187 0 35 -4 63 -7 63 -10 0 -5 44 6 52 7 5 7 8 0
8 -11 0 -16 60 -6 60 4 0 7 9 7 20 0 11 -4 20 -9 20 -4 0 -5 5 -2 11 4 5 9 29
11 52 2 23 6 62 9 87 4 25 7 59 8 75 1 17 5 32 8 35 4 3 9 21 12 40 8 47 30
123 55 189 12 30 19 58 17 62 -3 4 0 9 7 11 6 2 12 11 14 20 2 19 83 191 93
198 3 3 12 16 19 30 37 76 163 239 264 342 138 141 286 249 448 331 36 17 68
37 72 42 4 6 8 7 8 3 0 -4 18 2 40 13 21 11 47 22 57 24 10 2 19 4 21 4 1 1 5
1 8 0 4 0 10 3 13 8 5 7 63 29 106 39 6 1 37 9 70 18 33 9 78 19 100 22 22 3
51 8 65 10 14 2 54 7 90 10 36 4 66 7 67 8 5 4 219 -2 273 -8z"/>
</g>
</svg>
